<svg width="32" height="17" viewBox="0 0 32 17" fill="none" xmlns="http://www.w3.org/2000/svg">
<path d="M0.675783 9.25095C0.535158 8.81735 0.476565 8.31345 0.500002 7.73923C0.535158 7.15329 0.623049 6.59079 0.763674 6.05173C0.904299 5.50095 1.17969 4.96188 1.58985 4.43454C2.01172 3.9072 2.53906 3.4736 3.17188 3.13376C3.34766 3.08688 3.42969 3.08688 3.41797 3.13376C2.67969 3.6611 2.14649 4.29391 1.81836 5.0322C1.49024 5.77048 1.36719 6.49118 1.44922 7.19431C1.54297 7.89743 1.75977 8.55368 2.09961 9.16306C2.43946 9.77243 2.86719 10.247 3.38281 10.5869C3.47656 10.5869 3.52344 10.5517 3.52344 10.4814C3.38281 10.0244 3.30078 9.68454 3.27735 9.46188C3.26563 9.22751 3.28321 8.95212 3.33008 8.63571C3.37696 8.31931 3.39453 7.98532 3.38281 7.63376C3.34766 6.77829 3.47656 5.99899 3.76953 5.29587C4.07422 4.58102 4.67774 3.9072 5.58008 3.27438C5.01758 2.57126 5.09961 1.90329 5.82617 1.27048C5.9668 1.16501 6.11914 1.08298 6.28321 1.02438C6.44727 0.96579 6.62305 0.930634 6.81055 0.918915C7.00977 0.907196 7.19727 0.96579 7.37305 1.0947C7.54883 1.2236 7.69531 1.42282 7.8125 1.69235C7.95313 1.98532 8.02344 2.22556 8.02344 2.41306C8.02344 2.58884 7.98242 2.71188 7.90039 2.7822C7.81836 2.84079 7.68946 2.89938 7.51367 2.95798C7.02149 3.25095 6.76953 3.40329 6.75781 3.41501C6.57031 3.60251 6.41211 3.70212 6.28321 3.71384C6.16602 3.72556 6.02539 3.67868 5.86133 3.57321C5.39258 4.14743 5.06446 4.76266 4.87696 5.41891C4.70117 6.06345 4.66602 6.6611 4.77149 7.21188C4.88867 7.75095 5.12305 8.23141 5.47461 8.65329C5.83789 9.07516 6.28906 9.36227 6.82813 9.51462C7.0625 9.56149 7.22071 9.71384 7.30274 9.97165C7.45508 10.2646 7.61914 10.4228 7.79492 10.4463C7.98242 10.4697 8.16406 10.4463 8.33985 10.3759C8.51563 10.2939 8.74414 10.3408 9.02539 10.5166C9.37696 10.6338 9.60547 10.6572 9.71094 10.5869C9.81641 10.5166 9.92188 10.4111 10.0273 10.2705C10.1445 10.1181 10.2676 10.042 10.3965 10.042C11.4277 10.042 12.2246 9.6904 12.7871 8.98727C13.3496 8.28415 13.6191 7.45212 13.5957 6.49118C13.5957 6.38571 13.6484 6.38571 13.7539 6.49118C14 7.48727 14.0469 8.57712 13.8945 9.76071C13.7539 10.9326 13.4902 12.0283 13.1035 13.0478C12.7285 14.0674 12.3535 14.7002 11.9785 14.9463C11.5801 15.2041 11.1875 15.3681 10.8008 15.4384C10.4258 15.5205 10.1211 15.4326 9.88672 15.1748C9.66406 14.9287 9.62891 14.4892 9.78125 13.8564C10.0156 12.7666 9.97461 12.0459 9.65821 11.6943C9.45899 11.4716 9.24805 11.5068 9.02539 11.7998C8.65039 12.292 8.57422 13.0713 8.79688 14.1377C8.83203 14.3603 8.88477 14.583 8.95508 14.8056C8.9668 14.8642 9.01953 14.9756 9.11328 15.1396C9.20703 15.3154 9.26563 15.456 9.28906 15.5615C9.32422 15.667 9.27149 15.7783 9.13086 15.8955C9.00196 16.0127 8.75586 16.0888 8.39258 16.124C8.11133 16.1474 7.84766 16.1474 7.60156 16.124C7.36719 16.1006 7.14453 16.042 6.9336 15.9482C6.73438 15.8545 6.55274 15.7666 6.38867 15.6845C6.23633 15.6142 6.07227 15.4736 5.89649 15.2627C5.73242 15.0634 5.59766 14.9111 5.49219 14.8056C5.39844 14.7002 5.26953 14.5009 5.10547 14.208C4.95313 13.915 4.84766 13.7099 4.78906 13.5927C4.73047 13.4756 4.61328 13.2412 4.4375 12.8896C4.27344 12.5263 4.16211 12.2861 4.10352 12.1689C4.0918 12.0869 4.07422 12.0517 4.05078 12.0634C4.03906 12.0634 4.03321 12.0869 4.03321 12.1338C4.00977 12.333 4.02735 12.5615 4.08594 12.8193C4.15625 13.0654 4.21485 13.2705 4.26172 13.4345C4.32031 13.5986 4.34961 13.7568 4.34961 13.9091C4.34961 14.0498 4.27344 14.1552 4.1211 14.2256C3.96875 14.2959 3.72266 14.331 3.38281 14.331C3.00781 14.3076 2.70313 14.2431 2.46875 14.1377C2.2461 14.0322 1.98828 13.7744 1.69531 13.3642C1.41406 12.9424 1.15039 12.3388 0.904299 11.5537C0.787112 11.1084 0.734377 10.6865 0.746096 10.2881C0.757815 9.88962 0.734377 9.54391 0.675783 9.25095ZM6.24805 6.73727C6.09571 7.0654 6.05469 7.37595 6.125 7.66891C6.20703 7.95016 6.3711 8.14352 6.61719 8.24899C6.86328 8.36618 7.08008 8.37204 7.26758 8.26657C7.45508 8.1611 7.63672 7.97946 7.8125 7.72165C7.98828 7.46384 8.11719 7.30563 8.19922 7.24704C8.22266 7.24704 8.23438 7.20602 8.23438 7.12399C8.23438 6.66696 8.12891 6.3154 7.91797 6.06931C7.71875 5.82321 7.43164 5.7822 7.05664 5.94626C6.68164 6.13376 6.41211 6.39743 6.24805 6.73727ZM7.77735 9.39157C7.82422 9.25095 7.97656 9.18063 8.23438 9.18063C8.72656 9.18063 9.11328 9.22751 9.39453 9.32126C9.5 9.3447 9.57617 9.39743 9.62305 9.47946C9.68164 9.56149 9.6875 9.64352 9.64063 9.72556C9.60547 9.80759 9.52344 9.85446 9.39453 9.86618C9.26563 9.8779 9.14844 9.90134 9.04297 9.93649C8.94922 9.97165 8.87891 10.0068 8.83203 10.042C8.78516 10.0771 8.74414 10.1064 8.70899 10.1299C8.67383 10.1533 8.64453 10.1591 8.6211 10.1474C8.60938 10.124 8.5918 10.0771 8.56836 10.0068C8.35742 9.81931 8.16406 9.71384 7.98828 9.6904C7.80078 9.63181 7.73047 9.5322 7.77735 9.39157ZM7.8125 10.622C7.83594 10.9384 8.07617 11.1318 8.53321 11.2021C9.00196 11.2607 9.30078 11.1259 9.42969 10.7978H9.39453C9.00781 10.7978 8.49219 10.7392 7.84766 10.622C7.83594 10.622 7.82422 10.622 7.8125 10.622ZM9.93946 7.45798C9.9043 7.42282 9.9043 7.37595 9.93946 7.31735C10.2441 6.41501 10.6719 6.12204 11.2227 6.43845C11.5039 6.61423 11.7031 6.87204 11.8203 7.21188C11.9492 7.54001 11.9785 7.85641 11.9082 8.1611C11.8496 8.45407 11.7207 8.65329 11.5215 8.75876C11.2871 8.86423 11.1055 8.91696 10.9766 8.91696C10.8477 8.91696 10.7246 8.85251 10.6074 8.7236C10.502 8.58298 10.4199 8.44821 10.3613 8.31931C10.3145 8.17868 10.25 8.02048 10.168 7.8447C10.0859 7.66891 10.0098 7.54001 9.93946 7.45798ZM11.4863 2.3779C11.1582 2.91696 11.1816 3.26266 11.5566 3.41501C12.002 3.6611 12.3008 3.91306 12.4531 4.17087C12.6055 4.39352 12.7813 4.48141 12.9805 4.43454C13.1914 4.38766 13.3789 4.28806 13.543 4.13571C13.707 3.98337 13.8477 3.80759 13.9648 3.60837C14.1758 3.10446 14.0176 2.58884 13.4902 2.06149C13.2559 1.79196 12.9219 1.66891 12.4883 1.69235C12.0664 1.70407 11.7324 1.93259 11.4863 2.3779Z" fill="black"/>
<path d="M18.0553 14.2912V2.76779H22.5318V4.4006H19.6412V7.54123H22.4381V9.15842H19.6412V12.6428H22.649V14.2912H18.0553Z" fill="black"/>
<path d="M23.1568 14.2912L25.1568 2.76779H27.1568L29.2974 14.2912H27.5865L27.1724 11.5881H25.1881L24.7818 14.2912H23.1568ZM25.4068 9.97092H26.899L26.1256 5.17404L25.4068 9.97092Z" fill="black"/>
<path d="M30.0709 14.2912V2.76779H31.6568V14.2912H30.0709Z" fill="black"/>
</svg>
