<svg width="14" height="17" viewBox="0 0 14 17" fill="none" xmlns="http://www.w3.org/2000/svg">
<path d="M0.363879 9.25095C0.223254 8.81735 0.16466 8.31345 0.188097 7.73923C0.223254 7.15329 0.311144 6.59079 0.451769 6.05173C0.592394 5.50095 0.867785 4.96188 1.27794 4.43454C1.69982 3.9072 2.22716 3.4736 2.85997 3.13376C3.03575 3.08688 3.11778 3.08688 3.10607 3.13376C2.36778 3.6611 1.83458 4.29391 1.50646 5.0322C1.17833 5.77048 1.05528 6.49118 1.13732 7.19431C1.23107 7.89743 1.44786 8.55368 1.78771 9.16306C2.12755 9.77243 2.55528 10.247 3.07091 10.5869C3.16466 10.5869 3.21153 10.5517 3.21153 10.4814C3.07091 10.0244 2.98888 9.68454 2.96544 9.46188C2.95372 9.22751 2.9713 8.95212 3.01818 8.63571C3.06505 8.31931 3.08263 7.98532 3.07091 7.63376C3.03575 6.77829 3.16466 5.99899 3.45763 5.29587C3.76232 4.58102 4.36583 3.9072 5.26818 3.27438C4.70568 2.57126 4.78771 1.90329 5.51427 1.27048C5.65489 1.16501 5.80724 1.08298 5.9713 1.02438C6.13536 0.96579 6.31114 0.930634 6.49864 0.918915C6.69786 0.907196 6.88536 0.96579 7.06114 1.0947C7.23693 1.2236 7.38341 1.42282 7.5006 1.69235C7.64122 1.98532 7.71153 2.22556 7.71153 2.41306C7.71153 2.58884 7.67052 2.71188 7.58849 2.7822C7.50646 2.84079 7.37755 2.89938 7.20177 2.95798C6.70958 3.25095 6.45763 3.40329 6.44591 3.41501C6.25841 3.60251 6.10021 3.70212 5.9713 3.71384C5.85411 3.72556 5.71349 3.67868 5.54943 3.57321C5.08068 4.14743 4.75255 4.76266 4.56505 5.41891C4.38927 6.06345 4.35411 6.6611 4.45958 7.21188C4.57677 7.75095 4.81114 8.23141 5.16271 8.65329C5.52599 9.07516 5.97716 9.36227 6.51622 9.51462C6.7506 9.56149 6.9088 9.71384 6.99083 9.97165C7.14318 10.2646 7.30724 10.4228 7.48302 10.4463C7.67052 10.4697 7.85216 10.4463 8.02794 10.3759C8.20372 10.2939 8.43224 10.3408 8.71349 10.5166C9.06505 10.6338 9.29357 10.6572 9.39903 10.5869C9.5045 10.5166 9.60997 10.4111 9.71544 10.2705C9.83263 10.1181 9.95568 10.042 10.0846 10.042C11.1158 10.042 11.9127 9.6904 12.4752 8.98727C13.0377 8.28415 13.3072 7.45212 13.2838 6.49118C13.2838 6.38571 13.3365 6.38571 13.442 6.49118C13.6881 7.48727 13.735 8.57712 13.5826 9.76071C13.442 10.9326 13.1783 12.0283 12.7916 13.0478C12.4166 14.0674 12.0416 14.7002 11.6666 14.9463C11.2682 15.2041 10.8756 15.3681 10.4889 15.4384C10.1139 15.5205 9.80919 15.4326 9.57482 15.1748C9.35216 14.9287 9.317 14.4892 9.46935 13.8564C9.70372 12.7666 9.66271 12.0459 9.3463 11.6943C9.14708 11.4716 8.93614 11.5068 8.71349 11.7998C8.33849 12.292 8.26232 13.0713 8.48497 14.1377C8.52013 14.3603 8.57286 14.583 8.64318 14.8056C8.65489 14.8642 8.70763 14.9756 8.80138 15.1396C8.89513 15.3154 8.95372 15.456 8.97716 15.5615C9.01232 15.667 8.95958 15.7783 8.81896 15.8955C8.69005 16.0127 8.44396 16.0888 8.08068 16.124C7.79943 16.1474 7.53575 16.1474 7.28966 16.124C7.05528 16.1006 6.83263 16.042 6.62169 15.9482C6.42247 15.8545 6.24083 15.7666 6.07677 15.6845C5.92443 15.6142 5.76036 15.4736 5.58458 15.2627C5.42052 15.0634 5.28575 14.9111 5.18028 14.8056C5.08653 14.7002 4.95763 14.5009 4.79357 14.208C4.64122 13.915 4.53575 13.7099 4.47716 13.5927C4.41857 13.4756 4.30138 13.2412 4.1256 12.8896C3.96153 12.5263 3.85021 12.2861 3.79161 12.1689C3.77989 12.0869 3.76232 12.0517 3.73888 12.0634C3.72716 12.0634 3.7213 12.0869 3.7213 12.1338C3.69786 12.333 3.71544 12.5615 3.77403 12.8193C3.84435 13.0654 3.90294 13.2705 3.94982 13.4345C4.00841 13.5986 4.03771 13.7568 4.03771 13.9091C4.03771 14.0498 3.96153 14.1552 3.80919 14.2256C3.65685 14.2959 3.41075 14.331 3.07091 14.331C2.69591 14.3076 2.39122 14.2431 2.15685 14.1377C1.93419 14.0322 1.67638 13.7744 1.38341 13.3642C1.10216 12.9424 0.838488 12.3388 0.592394 11.5537C0.475207 11.1084 0.422472 10.6865 0.434191 10.2881C0.44591 9.88962 0.422472 9.54391 0.363879 9.25095ZM5.93614 6.73727C5.7838 7.0654 5.74278 7.37595 5.8131 7.66891C5.89513 7.95016 6.05919 8.14352 6.30528 8.24899C6.55138 8.36618 6.76818 8.37204 6.95568 8.26657C7.14318 8.1611 7.32482 7.97946 7.5006 7.72165C7.67638 7.46384 7.80528 7.30563 7.88732 7.24704C7.91075 7.24704 7.92247 7.20602 7.92247 7.12399C7.92247 6.66696 7.817 6.3154 7.60607 6.06931C7.40685 5.82321 7.11974 5.7822 6.74474 5.94626C6.36974 6.13376 6.10021 6.39743 5.93614 6.73727ZM7.46544 9.39157C7.51232 9.25095 7.66466 9.18063 7.92247 9.18063C8.41466 9.18063 8.80138 9.22751 9.08263 9.32126C9.1881 9.3447 9.26427 9.39743 9.31114 9.47946C9.36974 9.56149 9.3756 9.64352 9.32872 9.72556C9.29357 9.80759 9.21153 9.85446 9.08263 9.86618C8.95372 9.8779 8.83653 9.90134 8.73107 9.93649C8.63732 9.97165 8.567 10.0068 8.52013 10.042C8.47325 10.0771 8.43224 10.1064 8.39708 10.1299C8.36193 10.1533 8.33263 10.1591 8.30919 10.1474C8.29747 10.124 8.27989 10.0771 8.25646 10.0068C8.04552 9.81931 7.85216 9.71384 7.67638 9.6904C7.48888 9.63181 7.41857 9.5322 7.46544 9.39157ZM7.5006 10.622C7.52403 10.9384 7.76427 11.1318 8.2213 11.2021C8.69005 11.2607 8.98888 11.1259 9.11778 10.7978H9.08263C8.69591 10.7978 8.18028 10.7392 7.53575 10.622C7.52403 10.622 7.51232 10.622 7.5006 10.622ZM9.62755 7.45798C9.59239 7.42282 9.59239 7.37595 9.62755 7.31735C9.93224 6.41501 10.36 6.12204 10.9108 6.43845C11.192 6.61423 11.3912 6.87204 11.5084 7.21188C11.6373 7.54001 11.6666 7.85641 11.5963 8.1611C11.5377 8.45407 11.4088 8.65329 11.2096 8.75876C10.9752 8.86423 10.7936 8.91696 10.6647 8.91696C10.5358 8.91696 10.4127 8.85251 10.2955 8.7236C10.1901 8.58298 10.108 8.44821 10.0494 8.31931C10.0026 8.17868 9.9381 8.02048 9.85607 7.8447C9.77403 7.66891 9.69786 7.54001 9.62755 7.45798ZM11.1744 2.3779C10.8463 2.91696 10.8697 3.26266 11.2447 3.41501C11.6901 3.6611 11.9889 3.91306 12.1412 4.17087C12.2936 4.39352 12.4693 4.48141 12.6686 4.43454C12.8795 4.38766 13.067 4.28806 13.2311 4.13571C13.3951 3.98337 13.5358 3.80759 13.6529 3.60837C13.8639 3.10446 13.7057 2.58884 13.1783 2.06149C12.944 1.79196 12.61 1.66891 12.1764 1.69235C11.7545 1.70407 11.4205 1.93259 11.1744 2.3779Z" fill="black"/>
</svg>
